<svg xmlns="http://www.w3.org/2000/svg" viewBox="0 0 105.19 105.19"><defs><style>.cls-1{fill:#0080ff;}.cls-2{fill:#fff;}</style></defs><g id="Capa_2" data-name="Capa 2"><g id="Social_Media" data-name="Social Media"><g id="Facebook"><path class="cls-1" d="M105.19,52.59a52.6,52.6,0,1,0-60.81,52V67.8H31V52.59H44.38V41c0-13.19,7.85-20.47,19.86-20.47a80.49,80.49,0,0,1,11.77,1V34.51H69.38c-6.53,0-8.57,4.06-8.57,8.22v9.86H75.4L73.07,67.8H60.81v36.75A52.62,52.62,0,0,0,105.19,52.59Z"/><path class="cls-2" d="M73.07,67.8,75.4,52.59H60.81V42.73c0-4.16,2-8.22,8.57-8.22H76V21.57a80.49,80.49,0,0,0-11.77-1c-12,0-19.86,7.28-19.86,20.47V52.59H31V67.8H44.38v36.75a53,53,0,0,0,16.43,0V67.8Z"/></g></g></g></svg>