<svg xmlns="http://www.w3.org/2000/svg" xmlns:xlink="http://www.w3.org/1999/xlink" viewBox="0 0 105.19 105.19"><defs><style>.cls-1{fill:url(#linear-gradient);}.cls-2{fill:#fff;}</style><linearGradient id="linear-gradient" x1="3.33" y1="10.98" x2="108.49" y2="99.81" gradientUnits="userSpaceOnUse"><stop offset="0" stop-color="#ffe185"/><stop offset="0.21" stop-color="#ffbb36"/><stop offset="0.38" stop-color="#ff5176"/><stop offset="0.52" stop-color="#f63395"/><stop offset="0.74" stop-color="#a436d2"/><stop offset="1" stop-color="#5f4eed"/></linearGradient></defs><g id="Capa_2" data-name="Capa 2"><g id="Social_Media" data-name="Social Media"><g id="Instagram"><circle class="cls-1" cx="52.59" cy="52.59" r="52.59"/><path class="cls-2" d="M68.92,32.7a3.62,3.62,0,1,0,3.61,3.61A3.62,3.62,0,0,0,68.92,32.7Z"/><path class="cls-2" d="M52.85,37.33A15.19,15.19,0,1,0,68,52.52,15.21,15.21,0,0,0,52.85,37.33Zm0,24.92a9.73,9.73,0,1,1,9.72-9.73A9.74,9.74,0,0,1,52.85,62.25Z"/><path class="cls-2" d="M64.9,83.35H40.28A18.54,18.54,0,0,1,21.76,64.83V40.21A18.54,18.54,0,0,1,40.28,21.69H64.9A18.55,18.55,0,0,1,83.43,40.21V64.83A18.55,18.55,0,0,1,64.9,83.35ZM40.28,27.49A12.73,12.73,0,0,0,27.56,40.21V64.83A12.74,12.74,0,0,0,40.28,77.55H64.9A12.73,12.73,0,0,0,77.62,64.83V40.21A12.73,12.73,0,0,0,64.9,27.49Z"/></g></g></g></svg>