<svg xmlns="http://www.w3.org/2000/svg" viewBox="0 0 105.19 105.19"><defs><style>.cls-1{fill:red;}.cls-2{fill:#fff;}</style></defs><g id="Capa_2" data-name="Capa 2"><g id="Social_Media" data-name="Social Media"><g id="Patreon"><path class="cls-1" d="M52.59,0A52.57,52.57,0,0,0,31.14,100.58c-.07-1.48-.13-3-.08-4.44.17-5.12.8-6.87,7.39-34.6a1.92,1.92,0,0,0-.15-1.16,19.48,19.48,0,0,1-.51-13c3-9.45,13.71-10.18,15.58-2.37,1.16,4.82-1.9,11.14-4.24,20.47-2,7.71,7.12,13.18,14.87,7.56,7.15-5.18,9.92-17.61,9.39-26.42C72.36,29.1,53.1,25.3,40.88,31,26.87,37.43,23.69,54.8,30,62.73c.81,1,1.42,1.63,1.16,2.65C30.76,67,30.4,68.57,30,70.15a1.69,1.69,0,0,1-2.5,1.12,14.39,14.39,0,0,1-5.85-4.38c-5.37-6.65-6.9-19.81.2-30.94,7.87-12.34,22.5-17.33,35.86-15.82,16,1.82,26,12.72,27.93,25.09.86,5.63.24,19.53-7.67,29.35-9.1,11.28-23.85,12-30.65,5.1a22.4,22.4,0,0,1-1.46-1.78c-.08.25-.14.47-.2.68-3.27,12.8-3.63,15.65-7,21.59-.52.91-1.09,1.79-1.65,2.67A52.6,52.6,0,1,0,52.59,0Z"/><path class="cls-2" d="M45.62,78.57c.06-.21.12-.43.2-.68a22.4,22.4,0,0,0,1.46,1.78c6.8,6.93,21.55,6.18,30.65-5.1,7.91-9.82,8.53-23.72,7.67-29.35C83.71,32.85,73.62,22,57.67,20.13c-13.36-1.51-28,3.48-35.86,15.82-7.1,11.13-5.57,24.29-.2,30.94a14.39,14.39,0,0,0,5.85,4.38A1.69,1.69,0,0,0,30,70.15c.44-1.58.8-3.18,1.21-4.77.26-1-.35-1.64-1.16-2.65C23.69,54.8,26.87,37.43,40.88,31,53.1,25.3,72.36,29.1,73.39,46.66c.53,8.81-2.24,21.24-9.39,26.42-7.75,5.62-16.82.15-14.87-7.56,2.34-9.33,5.4-15.65,4.24-20.47C51.5,37.24,40.77,38,37.79,47.42a19.48,19.48,0,0,0,.51,13,1.92,1.92,0,0,1,.15,1.16C31.86,89.27,31.23,91,31.06,96.14c0,1.48,0,3,.08,4.44A50.7,50.7,0,0,0,37,102.83c.56-.88,1.13-1.76,1.65-2.67C42,94.22,42.35,91.37,45.62,78.57Z"/></g></g></g></svg>