<svg xmlns="http://www.w3.org/2000/svg" viewBox="0 0 105.19 105.19"><defs><style>.cls-1{fill:#ff1753;}.cls-1,.cls-2,.cls-3{fill-rule:evenodd;}.cls-2{fill:#fff;}.cls-3{fill:#00c9d0;}</style></defs><g id="Capa_2" data-name="Capa 2"><g id="Social_Media" data-name="Social Media"><g id="TikTok"><circle cx="52.59" cy="52.59" r="52.59"/><path class="cls-1" d="M66.41,43.54a25.88,25.88,0,0,0,15.12,4.84V37.53a15.37,15.37,0,0,1-3.17-.33v8.54A25.93,25.93,0,0,1,63.23,40.9V63A20.07,20.07,0,0,1,32,79.7a20.07,20.07,0,0,0,34.41-14V43.54ZM70.33,32.6a15.11,15.11,0,0,1-3.92-8.85v-1.4h-3A15.2,15.2,0,0,0,70.33,32.6ZM39,71.2a9.06,9.06,0,0,1-1.87-5.55,9.18,9.18,0,0,1,12-8.74V45.82a19.9,19.9,0,0,0-3.18-.19v8.64a8.77,8.77,0,0,0-2.78-.43A9.17,9.17,0,0,0,39,71.2Z"/><path class="cls-2" d="M63.23,40.9a25.93,25.93,0,0,0,15.13,4.84V37.2a15.13,15.13,0,0,1-8-4.6A15.2,15.2,0,0,1,63.4,22.35H55.49V65.68A9.18,9.18,0,0,1,39,71.2a9.17,9.17,0,0,1,6.91-16.93V45.63A20.05,20.05,0,0,0,32,79.7,20.07,20.07,0,0,0,63.23,63Z"/><path class="cls-3" d="M78.36,37.2V34.89a15.1,15.1,0,0,1-8-2.29A15.18,15.18,0,0,0,78.36,37.2Zm-15-14.85c-.07-.41-.13-.83-.17-1.24v-1.4H52.31V63A9.17,9.17,0,0,1,39,71.2a9.18,9.18,0,0,0,16.48-5.52V22.35ZM45.92,45.63V43.17A21,21,0,0,0,43.17,43,20.05,20.05,0,0,0,32,79.7,20.05,20.05,0,0,1,45.92,45.63Z"/></g></g></g></svg>