<svg xmlns="http://www.w3.org/2000/svg" viewBox="0 0 105.19 105.19"><defs><style>.cls-1{fill:#0cf;}.cls-2{fill:#fff;}</style></defs><g id="Capa_2" data-name="Capa 2"><g id="Social_Media" data-name="Social Media"><g id="Twitter"><circle class="cls-1" cx="52.59" cy="52.59" r="52.59"/><path class="cls-2" d="M81.65,34.57a23.34,23.34,0,0,1-5.8,1.66c.93-.16,2.3-1.85,2.85-2.53a10.58,10.58,0,0,0,1.93-3.51c.05-.1.09-.23,0-.3a.33.33,0,0,0-.31,0,29.27,29.27,0,0,1-6.88,2.63.46.46,0,0,1-.47-.12,5.92,5.92,0,0,0-.6-.62,12.33,12.33,0,0,0-3.34-2,11.58,11.58,0,0,0-5.11-.82,12.08,12.08,0,0,0-4.84,1.37,12.35,12.35,0,0,0-3.92,3.19,12.06,12.06,0,0,0-2.33,4.68,12.64,12.64,0,0,0-.12,4.94c0,.27,0,.31-.24.27C43,42,35.18,38.61,28.82,31.37c-.27-.32-.42-.32-.65,0-2.78,4.17-1.43,10.87,2,14.16.46.44.94.88,1.45,1.28a12.14,12.14,0,0,1-4.56-1.28c-.28-.18-.42-.08-.44.24a7,7,0,0,0,.07,1.35,12.12,12.12,0,0,0,7.47,9.66,7.43,7.43,0,0,0,1.52.47,13.45,13.45,0,0,1-4.47.13c-.33-.06-.45.1-.33.42,2,5.36,6.22,7,9.4,7.87.42.07.85.07,1.28.17,0,0,0,0-.08.08-1.05,1.61-4.71,2.8-6.42,3.4a23.06,23.06,0,0,1-9.74,1.25c-.53-.08-.64-.08-.78,0s0,.21.15.35c.66.43,1.34.82,2,1.2a32.53,32.53,0,0,0,6.52,2.61C45,78,58.18,75.6,67,66.87,73.88,60,76.3,50.55,76.3,41.08c0-.38.44-.58.7-.78a22.72,22.72,0,0,0,4.58-4.76,1.43,1.43,0,0,0,.31-.92v0C81.89,34.42,81.89,34.47,81.65,34.57Z"/></g></g></g></svg>