<svg xmlns="http://www.w3.org/2000/svg" viewBox="0 0 101.12 101.12"><defs><style>.cls-1{fill:#0cf;}</style></defs><g id="Capa_2" data-name="Capa 2"><g id="Social_Media" data-name="Social Media"><path class="cls-1" d="M50.56,0a50.56,50.56,0,1,0,50.56,50.56A50.62,50.62,0,0,0,50.56,0ZM94,47.07H75C74.5,31.3,70.83,17.93,65.21,9.52A43.65,43.65,0,0,1,94,47.07ZM50.56,94.14c-7.89,0-16.64-16.29-17.43-40.09H68C67.2,77.85,58.45,94.14,50.56,94.14ZM33.13,47.07C33.92,23.27,42.67,7,50.56,7S67.2,23.27,68,47.07ZM35.91,9.52c-5.62,8.41-9.29,21.78-9.76,37.55h-19A43.66,43.66,0,0,1,35.91,9.52ZM7.13,54.05h19c.47,15.77,4.14,29.14,9.76,37.55A43.66,43.66,0,0,1,7.13,54.05ZM65.21,91.6C70.83,83.19,74.5,69.82,75,54.05H94A43.65,43.65,0,0,1,65.21,91.6Z"/></g></g></svg>