<svg xmlns="http://www.w3.org/2000/svg" viewBox="0 0 105.19 105.19"><defs><style>.cls-1{fill:#00d954;}.cls-2,.cls-3{fill:#fff;}.cls-3{fill-rule:evenodd;}</style></defs><g id="Capa_2" data-name="Capa 2"><g id="Social_Media" data-name="Social Media"><g id="WhatsApp"><circle class="cls-1" cx="52.59" cy="52.59" r="52.59" transform="translate(-7.68 96.18) rotate(-80.87)"/><path class="cls-2" d="M24.18,82.36,28.56,66A30.27,30.27,0,1,1,40.62,78ZM41.44,71.82l1,.62a24.63,24.63,0,1,0-8.41-8.34l.63,1.05-2.45,9.13Z"/><path class="cls-3" d="M66.22,55.6c-1.24-.74-2.86-1.57-4.33-1-1.12.46-1.84,2.22-2.56,3.11a1.08,1.08,0,0,1-1.4.31,19.61,19.61,0,0,1-9.78-8.38A1.21,1.21,0,0,1,48.3,48a6.59,6.59,0,0,0,1.78-2.88,6.34,6.34,0,0,0-.79-3.42c-.59-1.27-1.25-3.08-2.52-3.79a3.47,3.47,0,0,0-3.75.55,7.61,7.61,0,0,0-2.64,6,8.2,8.2,0,0,0,.23,1.92,16.07,16.07,0,0,0,1.84,4.23c.59,1,1.23,2,1.92,2.92a29.52,29.52,0,0,0,8.31,7.71,25,25,0,0,0,5.19,2.47c2,.67,3.84,1.37,6,.95a7.26,7.26,0,0,0,5.47-4.07,3.52,3.52,0,0,0,.26-2.07C69.32,57.14,67.38,56.29,66.22,55.6Z"/></g></g></g></svg>