<svg xmlns="http://www.w3.org/2000/svg" viewBox="0 0 105.19 105.19"><defs><style>.cls-1{fill:red;}.cls-2{fill:#fff;}</style></defs><g id="Capa_2" data-name="Capa 2"><g id="Social_Media" data-name="Social Media"><g id="YouTube"><circle class="cls-1" cx="52.59" cy="52.59" r="52.59"/><path class="cls-2" d="M80.75,45.08A12.62,12.62,0,0,0,68.12,32.45H35.83A12.62,12.62,0,0,0,23.2,45.08v15A12.63,12.63,0,0,0,35.83,72.74H68.12A12.63,12.63,0,0,0,80.75,60.11Zm-19,8.64L47.28,60.88c-.57.31-2.5-.1-2.5-.75V45.43c0-.66,1.95-1.07,2.51-.74l13.87,7.54C61.74,52.56,62.35,53.4,61.76,53.72Z"/></g></g></g></svg>